<?xml version="1.0" encoding="UTF-8"?>
<!DOCTYPE svg PUBLIC "-//W3C//DTD SVG 1.1//EN" "http://www.w3.org/Graphics/SVG/1.1/DTD/svg11.dtd">
<!-- Creator: CorelDRAW 2019 (64-Bit) -->
<svg xmlns="http://www.w3.org/2000/svg" xml:space="preserve" width="50mm" height="50mm" version="1.1" style="shape-rendering:geometricPrecision; text-rendering:geometricPrecision; image-rendering:optimizeQuality; fill-rule:evenodd; clip-rule:evenodd"
viewBox="0 0 5000 5000"
 xmlns:xlink="http://www.w3.org/1999/xlink">
 <defs>
  <style type="text/css">
   <![CDATA[
    .fil0 {fill:#FEFEFE}
   ]]>
  </style>
 </defs>
 <g id="Layer_x0020_1">
  <metadata id="CorelCorpID_0Corel-Layer"/>
  <g id="_1972146200464">
   <path class="fil0" d="M2059.09 3025.69c-9.22,-30.07 -16.94,-169.53 -8.87,-192.28 24.03,-67.67 216.36,-58.61 307.47,18.28 45.22,38.17 77.16,66.5 104.44,124.41 68.36,145.16 40.67,234.14 -146.46,218.02 -107.98,-9.32 -225.06,-65.72 -256.58,-168.43zm-362.88 -994.11c70.64,41.2 106.96,40.84 121.97,155.62 42.15,322.19 10.46,396.14 13.72,698.67 2.94,274.53 -38.87,467.7 231.29,538.16 245.4,64 293.27,-107.92 420.35,-214.35 144.11,-120.69 306.86,-190.54 225.25,-397.25 -30.68,-77.72 -44.78,-105.47 -113.1,-158.19 -63.93,-49.34 -67.27,-72.33 -166.21,-92.1 -174.69,-34.89 -287.94,7.71 -375.08,111.43 -22.76,-87.49 1.01,-368.46 -4.27,-486.37 -7.85,-175.05 -4.97,-368.05 -171.76,-395.41 -51.76,41.43 -168.94,190.48 -182.16,239.79z"/>
   <path class="fil0" d="M2711.85 3158.92c69.99,-12.5 385.57,-253.14 424.06,-294.45 254.36,-273 291.58,-1073.08 -454.44,-1259.53 -77.56,-19.39 -304.81,-51.82 -390.32,-35.44 -69.58,13.32 -108.68,97.84 -167.51,179.42 -26.84,37.22 -29.27,26.66 -26.28,67.82 617.15,-91.81 1107.44,358.89 901.6,964.56 -90.7,266.88 -215.33,260.35 -287.11,377.62z"/>
  </g>
 </g>
</svg>
